<svg xmlns="http://www.w3.org/2000/svg" width="163.687" height="56.563" viewBox="0 0 163.687 56.563">
  <defs>
    <style>
      .cls-1 {
        fill-rule: evenodd;
      }
    </style>
  </defs>
  <path id="FAQ.svg" class="cls-1" d="M299.41,487.313v-5.9H267.257v-19.2H295.2v-5.9H261.423V511.6h5.834V487.313H299.41ZM363.723,511.6l-21.638-55.284H331.977L310.542,511.6h6.241L337,459.909l12.956,32.967h-18.79v5.63h20.961l5.223,13.092h6.376Zm61.4,1.085V506.51l-5.223-3.866c2.307-3.324,3.731-7.6,3.731-13.363V478.5c0-15.669-7.19-22.385-22.453-22.385h-3.391c-15.331,0-22.453,6.716-22.453,22.385v10.786c0,15.669,7.122,22.317,22.453,22.317h8.14v-5.834h-8.14c-10.854,0-16.619-4.477-16.619-16.483V478.5c0-12.006,5.765-16.415,16.619-16.415h3.391c10.854,0,16.552,4.409,16.552,16.415v10.786c0,4.273-.747,7.529-2.171,10.039l-17.026-12.888V492.6Z" transform="translate(-261.438 -456.125)"/>
</svg>
