<svg xmlns="http://www.w3.org/2000/svg" width="17.711" height="14.734" viewBox="0 0 17.711 14.734">
  <g id="next_10_" data-name="next (10)" transform="translate(0 -41.346)">
    <g id="グループ_8" data-name="グループ 8" transform="translate(0 41.346)">
      <path id="パス_4" data-name="パス 4" d="M17.427,48.025l-6.4-6.4a.972.972,0,0,0-1.371,0l-.581.581A.962.962,0,0,0,8.8,42.9a.981.981,0,0,0,.283.693l3.731,3.739H.957A.946.946,0,0,0,0,48.281V49.1a.982.982,0,0,0,.957,1h11.9L9.08,53.858a.96.96,0,0,0,0,1.361l.581.579a.972.972,0,0,0,1.371,0l6.4-6.4a.978.978,0,0,0,0-1.376Z" transform="translate(0 -41.346)" fill="#02899f"/>
    </g>
  </g>
</svg>
