<svg xmlns="http://www.w3.org/2000/svg" width="491.5" height="252.74" viewBox="0 0 491.5 252.74">
  <g id="無限_インフィニティー_マークのフリーアイコン_1" data-name="無限（インフィニティー）マークのフリーアイコン 1" transform="translate(0 -124.36)" opacity="0.327">
    <path id="パス_51892" data-name="パス 51892" d="M481.74,200.928c-19.12-45.313-65.2-76.107-114.579-76.568H366.01c-3.533,0-7.144.154-10.676.462-.69.075-1.459.154-2.148.232s-1.384.151-2.148.228c-2.459.308-4.916.69-7.372,1.077-2.459.457-4.84,1-7.3,1.534-2.381.614-4.836,1.308-7.143,2-2.382.765-4.759,1.534-7.064,2.382a127.819,127.819,0,0,0-13.668,6.063c-1.231.615-2.535,1.308-3.765,2s-2.46,1.383-3.686,2.148c-11.52,6.989-20.43,15.284-26.879,21.733L260.8,177.582l47.682,50.053,6.338,6.678s.008-.012.015-.014l.1.112c10.061-12.6,27.261-27.876,51.376-28.183h.769a42.408,42.408,0,0,1,10.9,1.384c.889.213,1.766.514,2.648.791q1.6.505,3.108,1.121c.855.348,1.722.671,2.539,1.08a23.452,23.452,0,0,1,3.071,1.613,43.131,43.131,0,0,1,4.376,2.842c1.155.923,2.228,1.766,3.3,2.764a44.492,44.492,0,0,1,0,65.892c-1.076.923-2.148,1.845-3.3,2.689a43.422,43.422,0,0,1-4.376,2.917,44.423,44.423,0,0,1-22.27,5.913h-.769c-25.573-.308-39.091-16.2-53.068-30.333l-39.932-41.93-28.262-29.646L215.488,162.3a137.323,137.323,0,0,0-24.959-19.814c-1.23-.766-2.456-1.459-3.686-2.148s-2.53-1.384-3.761-2a127.618,127.618,0,0,0-13.672-6.063c-2.3-.848-4.683-1.617-7.064-2.382-2.381-.689-4.762-1.384-7.14-2-2.459-.537-4.84-1.077-7.3-1.534-2.459-.386-4.916-.769-7.372-1.077-.769-.079-1.462-.154-2.152-.228s-1.458-.157-2.148-.232c-3.532-.308-7.143-.462-10.676-.462h-1.151c-49.381.462-95.459,31.254-114.579,76.568A125.2,125.2,0,0,0,0,250.232v1.077a125.242,125.242,0,0,0,9.828,49.3c19.12,45.308,65.2,76.027,114.579,76.489h3.611c1.151-.079,2.3-.079,3.454-.154,3.071-.075,6.068-.382,9.064-.69L144,375.8a10.041,10.041,0,0,0,1.454-.308c1.77-.232,3.458-.536,5.145-.923A122.842,122.842,0,0,0,183.083,363.2c1.231-.689,2.535-1.3,3.761-1.995,1.231-.769,2.457-1.463,3.686-2.228,11.52-6.915,20.43-15.209,26.879-21.659l13.518-13.593-47.384-49.735-6.641-7a.035.035,0,0,1-.014.014l-.106-.108c-10.057,12.6-27.337,28.029-51.53,28.337h-.765a44.911,44.911,0,0,1-22.35-5.913c-1.462-.923-2.917-1.841-4.3-2.917-1.151-.844-2.228-1.766-3.3-2.689a44.492,44.492,0,0,1,0-65.892c1.076-1,2.152-1.841,3.3-2.764,1.383-1,2.839-1.995,4.3-2.842a30.169,30.169,0,0,1,3.151-1.613,38.074,38.074,0,0,1,8.291-2.992,42.417,42.417,0,0,1,10.908-1.384h.765c1.44.018,2.842.128,4.233.263.372.034.743.063,1.111.108,23.844,2.82,40.438,21.565,48.953,31.731l38.473,40.393,28.337,29.642,22.2,23.347,5.606,5.605c6.449,6.45,15.359,14.744,26.879,21.659,1.226.765,2.456,1.459,3.686,2.228,1.23.689,2.459,1.3,3.765,1.995a122.846,122.846,0,0,0,32.481,11.366c1.691.386,3.382.689,5.07.923a14.32,14.32,0,0,0,1.538.308l3.458.461c2.992.308,5.988.615,9.06.69,1.151.075,2.3.075,3.378.154h3.686c49.381-.462,95.459-31.18,114.579-76.489a125.23,125.23,0,0,0,9.757-49.3v-1.077A125.239,125.239,0,0,0,481.74,200.928Z" transform="translate(0)" fill="#fff"/>
  </g>
</svg>
